<svg width="166" height="31" viewBox="0 0 166 31" fill="none" xmlns="http://www.w3.org/2000/svg">
<g clip-path="url(#clip0_70_14215)">
<path d="M1.74399 4.64527C1.74399 4.64527 0 4.95679 0 6.40364V16.947C0 22.5821 8.41422 28.8541 11.2699 30.7232C11.8397 31.097 12.5762 31.097 13.1459 30.7232C16.0086 28.861 24.4158 22.589 24.4158 16.947V6.40364C24.4158 4.95679 22.6718 4.64527 22.6718 4.64527L13.2432 1.72388C12.5692 1.51619 11.8466 1.51619 11.1726 1.72388L1.74399 4.64527Z" fill="#E7EFFD"/>
<path d="M3.86317 3.41296C3.86317 3.41296 3.91876 3.39912 3.9535 3.39219L13.3821 0.470801C13.9102 0.304655 14.48 0.304655 15.008 0.470801L24.4367 3.39219C24.4367 3.39219 24.4922 3.40604 24.527 3.41296C24.527 3.41296 24.5409 3.41296 24.5617 3.41988C24.5965 3.42681 24.6451 3.44065 24.7076 3.46142C24.8327 3.50296 24.9925 3.56526 25.1523 3.65526C25.458 3.83525 25.6595 4.07062 25.6595 4.4306V14.9739C25.6595 16.1992 25.201 17.5146 24.4019 18.8645C23.6098 20.2075 22.512 21.5298 21.31 22.7551C18.899 25.2126 16.1267 27.2133 14.7301 28.1202C14.4105 28.3279 14.0005 28.3279 13.6809 28.1202C12.2774 27.2064 9.51202 25.2057 7.10101 22.7482C5.89898 21.5228 4.80117 20.2006 4.00908 18.8576C3.21699 17.5146 2.75146 16.1993 2.75146 14.967V4.4306C2.75146 4.07062 2.94601 3.83525 3.25868 3.65526C3.41154 3.56526 3.57135 3.50296 3.70336 3.46142C3.7659 3.44065 3.81453 3.42681 3.84927 3.41988C3.86317 3.41988 3.87707 3.41988 3.88401 3.41296H3.86317Z" stroke="#0046C7" stroke-width="0.5"/>
<path d="M8.14323 10.8547H7.44147L8.14323 12.5023L7.52484 13.9284L6.20469 10.8547H5.50293L7.30945 15.0914H7.74718L8.49759 13.3469L9.24799 15.0914H9.68572L11.4922 10.8547H10.7905L9.47033 13.9561L8.15018 10.8547H8.14323Z" fill="#0046C7"/>
<path d="M14.8275 10.8547L13.6186 12.9869L12.4096 10.8547H11.6592L13.3128 13.7415V15.0707H13.9521V13.7415L15.5779 10.8547H14.8275Z" fill="#0046C7"/>
<path d="M19.5176 15.0914H22.8596V14.3645H19.5176V15.0914Z" fill="#0046C7"/>
<path d="M19.5176 11.5816H22.8596V10.8547H19.5176V11.5816Z" fill="#0046C7"/>
<path d="M19.5176 13.3263H22.8596V12.5994H19.5176V13.3263Z" fill="#0046C7"/>
<path d="M15.7723 10.8547V11.5609H17.9749L15.5083 15.0984H19.0935V14.3992H16.8285L19.3159 10.8617H15.7723V10.8547Z" fill="#0046C7"/>
</g>
<path d="M36.94 20.78C34.8333 20.78 33.0933 20.08 31.72 18.68C30.3467 17.28 29.66 15.5533 29.66 13.5C29.66 11.4333 30.3467 9.70667 31.72 8.32C33.0933 6.92 34.8333 6.22 36.94 6.22C38.2067 6.22 39.3733 6.52 40.44 7.12C41.52 7.70667 42.36 8.50667 42.96 9.52L40.58 10.9C40.2333 10.2733 39.74 9.78667 39.1 9.44C38.46 9.08 37.74 8.9 36.94 8.9C35.58 8.9 34.48 9.32667 33.64 10.18C32.8133 11.0333 32.4 12.14 32.4 13.5C32.4 14.8467 32.8133 15.9467 33.64 16.8C34.48 17.6533 35.58 18.08 36.94 18.08C37.74 18.08 38.46 17.9067 39.1 17.56C39.7533 17.2 40.2467 16.7133 40.58 16.1L42.96 17.48C42.36 18.4933 41.5267 19.3 40.46 19.9C39.3933 20.4867 38.22 20.78 36.94 20.78ZM52.1541 10.5H54.7341V20.5H52.1541V19.32C51.3807 20.2933 50.2941 20.78 48.8941 20.78C47.5607 20.78 46.4141 20.2733 45.4541 19.26C44.5074 18.2333 44.0341 16.98 44.0341 15.5C44.0341 14.02 44.5074 12.7733 45.4541 11.76C46.4141 10.7333 47.5607 10.22 48.8941 10.22C50.2941 10.22 51.3807 10.7067 52.1541 11.68V10.5ZM47.3941 17.54C47.9141 18.06 48.5741 18.32 49.3741 18.32C50.1741 18.32 50.8341 18.06 51.3541 17.54C51.8874 17.0067 52.1541 16.3267 52.1541 15.5C52.1541 14.6733 51.8874 14 51.3541 13.48C50.8341 12.9467 50.1741 12.68 49.3741 12.68C48.5741 12.68 47.9141 12.9467 47.3941 13.48C46.8741 14 46.6141 14.6733 46.6141 15.5C46.6141 16.3267 46.8741 17.0067 47.3941 17.54ZM68.0936 10.22C69.2403 10.22 70.1536 10.5933 70.8336 11.34C71.5269 12.0867 71.8736 13.0867 71.8736 14.34V20.5H69.2936V14.52C69.2936 13.92 69.1469 13.4533 68.8536 13.12C68.5603 12.7867 68.1469 12.62 67.6136 12.62C67.0269 12.62 66.5669 12.8133 66.2336 13.2C65.9136 13.5867 65.7536 14.1467 65.7536 14.88V20.5H63.1736V14.52C63.1736 13.92 63.0269 13.4533 62.7336 13.12C62.4403 12.7867 62.0269 12.62 61.4936 12.62C60.9203 12.62 60.4603 12.8133 60.1136 13.2C59.7803 13.5867 59.6136 14.1467 59.6136 14.88V20.5H57.0336V10.5H59.6136V11.56C60.2136 10.6667 61.1403 10.22 62.3936 10.22C63.6203 10.22 64.5269 10.7 65.1136 11.66C65.7803 10.7 66.7736 10.22 68.0936 10.22Z" fill="black"/>
<path d="M84.3248 20.78C82.7648 20.78 81.4848 20.34 80.4848 19.46C79.4848 18.58 78.9848 17.4 78.9848 15.92V6.5H81.7248V15.7C81.7248 16.4333 81.9315 17.0133 82.3448 17.44C82.7715 17.8667 83.4315 18.08 84.3248 18.08C85.2182 18.08 85.8715 17.8667 86.2848 17.44C86.7115 17.0133 86.9248 16.4333 86.9248 15.7V6.5H89.6848V15.92C89.6848 17.4 89.1848 18.58 88.1848 19.46C87.1848 20.34 85.8982 20.78 84.3248 20.78ZM97.5712 10.22C98.6646 10.22 99.5646 10.5867 100.271 11.32C100.991 12.0533 101.351 13.0667 101.351 14.36V20.5H98.7712V14.68C98.7712 14.0133 98.5912 13.5067 98.2312 13.16C97.8712 12.8 97.3912 12.62 96.7912 12.62C96.1246 12.62 95.5912 12.8267 95.1912 13.24C94.7912 13.6533 94.5912 14.2733 94.5912 15.1V20.5H92.0112V10.5H94.5912V11.62C95.2179 10.6867 96.2112 10.22 97.5712 10.22ZM103.514 20.5V5.9H106.094V20.5H103.514ZM109.696 9.3C109.269 9.3 108.896 9.14667 108.576 8.84C108.269 8.52 108.116 8.14667 108.116 7.72C108.116 7.29333 108.269 6.92 108.576 6.6C108.896 6.28 109.269 6.12 109.696 6.12C110.136 6.12 110.509 6.28 110.816 6.6C111.136 6.92 111.296 7.29333 111.296 7.72C111.296 8.14667 111.136 8.52 110.816 8.84C110.509 9.14667 110.136 9.3 109.696 9.3ZM108.416 20.5V10.5H110.996V20.5H108.416ZM124.377 10.22C125.524 10.22 126.437 10.5933 127.117 11.34C127.81 12.0867 128.157 13.0867 128.157 14.34V20.5H125.577V14.52C125.577 13.92 125.43 13.4533 125.137 13.12C124.844 12.7867 124.43 12.62 123.897 12.62C123.31 12.62 122.85 12.8133 122.517 13.2C122.197 13.5867 122.037 14.1467 122.037 14.88V20.5H119.457V14.52C119.457 13.92 119.31 13.4533 119.017 13.12C118.724 12.7867 118.31 12.62 117.777 12.62C117.204 12.62 116.744 12.8133 116.397 13.2C116.064 13.5867 115.897 14.1467 115.897 14.88V20.5H113.317V10.5H115.897V11.56C116.497 10.6667 117.424 10.22 118.677 10.22C119.904 10.22 120.81 10.7 121.397 11.66C122.064 10.7 123.057 10.22 124.377 10.22ZM131.588 9.3C131.162 9.3 130.788 9.14667 130.468 8.84C130.162 8.52 130.008 8.14667 130.008 7.72C130.008 7.29333 130.162 6.92 130.468 6.6C130.788 6.28 131.162 6.12 131.588 6.12C132.028 6.12 132.402 6.28 132.708 6.6C133.028 6.92 133.188 7.29333 133.188 7.72C133.188 8.14667 133.028 8.52 132.708 8.84C132.402 9.14667 132.028 9.3 131.588 9.3ZM130.308 20.5V10.5H132.888V20.5H130.308ZM140.93 12.98H138.67V17.14C138.67 17.4867 138.756 17.74 138.93 17.9C139.103 18.06 139.356 18.1533 139.69 18.18C140.023 18.1933 140.436 18.1867 140.93 18.16V20.5C139.156 20.7 137.903 20.5333 137.17 20C136.45 19.4667 136.09 18.5133 136.09 17.14V12.98H134.35V10.5H136.09V8.48L138.67 7.7V10.5H140.93V12.98ZM144.576 16.56C144.923 17.8133 145.863 18.44 147.396 18.44C148.383 18.44 149.13 18.1067 149.636 17.44L151.716 18.64C150.73 20.0667 149.276 20.78 147.356 20.78C145.703 20.78 144.376 20.28 143.376 19.28C142.376 18.28 141.876 17.02 141.876 15.5C141.876 13.9933 142.37 12.74 143.356 11.74C144.343 10.7267 145.61 10.22 147.156 10.22C148.623 10.22 149.83 10.7267 150.776 11.74C151.736 12.7533 152.216 14.0067 152.216 15.5C152.216 15.8333 152.183 16.1867 152.116 16.56H144.576ZM144.536 14.56H149.636C149.49 13.88 149.183 13.3733 148.716 13.04C148.263 12.7067 147.743 12.54 147.156 12.54C146.463 12.54 145.89 12.72 145.436 13.08C144.983 13.4267 144.683 13.92 144.536 14.56ZM161.479 6.5H164.059V20.5H161.479V19.32C160.719 20.2933 159.639 20.78 158.239 20.78C156.893 20.78 155.739 20.2733 154.779 19.26C153.833 18.2333 153.359 16.98 153.359 15.5C153.359 14.02 153.833 12.7733 154.779 11.76C155.739 10.7333 156.893 10.22 158.239 10.22C159.639 10.22 160.719 10.7067 161.479 11.68V6.5ZM156.719 17.54C157.253 18.06 157.919 18.32 158.719 18.32C159.519 18.32 160.179 18.06 160.699 17.54C161.219 17.0067 161.479 16.3267 161.479 15.5C161.479 14.6733 161.219 14 160.699 13.48C160.179 12.9467 159.519 12.68 158.719 12.68C157.919 12.68 157.253 12.9467 156.719 13.48C156.199 14 155.939 14.6733 155.939 15.5C155.939 16.3267 156.199 17.0067 156.719 17.54Z" fill="#4E2FD2"/>
<defs>
<clipPath id="clip0_70_14215">
<rect width="26" height="31" fill="white"/>
</clipPath>
</defs>
</svg>
